<?xml version="1.0" encoding="utf-8"?>
<!-- Generator: Adobe Illustrator 18.0.0, SVG Export Plug-In . SVG Version: 6.00 Build 0)  -->
<!DOCTYPE svg PUBLIC "-//W3C//DTD SVG 1.1//EN" "http://www.w3.org/Graphics/SVG/1.1/DTD/svg11.dtd">
<svg version="1.1" id="Layer_1" xmlns="http://www.w3.org/2000/svg" xmlns:xlink="http://www.w3.org/1999/xlink" x="0px" y="0px"
	 viewBox="0 0 150 150" enable-background="new 0 0 150 150" xml:space="preserve">
<g>
	<path fill="#1C75BC" d="M102.1,89.4c-8.5,8.1-14.5,13.3-18.2,15.7c-3.7,2.4-7.2,3.7-10.5,3.7c-8.3,0-12.3-7.4-11.8-22.1
		c-5.3,7.5-10.2,13.2-14.6,16.8c-4.5,3.6-9.1,5.4-13.9,5.4c-4.7,0-8.6-2.2-11.8-6.5c-3.2-4.4-4.8-9.8-4.8-16c0-8,2.2-15.5,6.5-22.7
		s10-13,16.8-17.5s12.9-6.6,18.1-6.6c6.6,0,11.3,3,13.9,9.1l16.2-9h4.5l-7,23.3c-3.6,11.7-5.4,19.7-5.4,24.1c0,4.6,1.6,6.8,4.8,6.8
		c2.1,0,4.3-1.1,6.8-3.3c2.5-2.2,6-5.6,10.5-10L102.1,89.4L102.1,89.4z M43.9,93.7c5.3,0,10.3-4.5,15-13.5c4.7-9.1,7-17.4,7-25
		c0-3-0.6-5.3-2-7c-1.3-1.7-3.1-2.5-5.3-2.5c-5.3,0-10.3,4.5-15.1,13.5S36.4,76.5,36.4,84c0,2.9,0.7,5.2,2.1,7
		C40,92.9,41.8,93.7,43.9,93.7z"/>
</g>
<g>
	<path fill="#1C75BC" d="M127.8,69.1c0.8,0,1.5,0.3,2.1,0.9s0.9,1.3,0.9,2.1v3c0,0.8-0.3,1.5-0.9,2.1s-1.3,0.9-2.1,0.9h-13.5v13.5
		c0,0.8-0.3,1.5-0.9,2.1s-1.3,0.9-2.1,0.9h-3c-0.8,0-1.5-0.3-2.1-0.9s-0.9-1.3-0.9-2.1V78.1H91.8c-0.8,0-1.5-0.3-2.1-0.9
		s-0.9-1.3-0.9-2.1v-3c0-0.8,0.3-1.5,0.9-2.1s1.3-0.9,2.1-0.9h13.5V55.6c0-0.8,0.3-1.5,0.9-2.1s1.3-0.9,2.1-0.9h3
		c0.8,0,1.5,0.3,2.1,0.9s0.9,1.3,0.9,2.1v13.5H127.8z"/>
</g>
</svg>
