<?xml version="1.0" encoding="utf-8"?>
<!-- Generator: Adobe Illustrator 16.0.0, SVG Export Plug-In . SVG Version: 6.00 Build 0)  -->
<!DOCTYPE svg PUBLIC "-//W3C//DTD SVG 1.1//EN" "http://www.w3.org/Graphics/SVG/1.1/DTD/svg11.dtd">
<svg version="1.1" 
	xmlns="http://www.w3.org/2000/svg" 
	xmlns:xlink="http://www.w3.org/1999/xlink" x="0px" y="0px" width="150px" height="150px" viewBox="0 0 150 150" enable-background="new 0 0 150 150" xml:space="preserve">
	<g>
		<polygon fill="#FFFFFF" points="64.369,16.014 0,133.932 26.684,133.986 64.369,64.216 89.413,110.586 63.204,110.58 
		50.527,133.973 102.051,133.984 102.053,133.986 103.312,133.984 116.354,133.986 116.354,133.957 128.737,133.932 	"/>
		<path fill="#FFFFFF" d="M146.505,39.68h-17.913V21.767c0-1.931-1.564-3.496-3.495-3.496c-1.93,0-3.495,1.565-3.495,3.496V39.68
		h-17.912c-1.931,0-3.495,1.565-3.495,3.495s1.564,3.495,3.495,3.495h17.912v17.913c0,1.93,1.565,3.495,3.495,3.495
		c1.931,0,3.495-1.565,3.495-3.495V46.67h17.913c1.93,0,3.495-1.565,3.495-3.495S148.435,39.68,146.505,39.68z"/>
	</g>
</svg>
